<svg width="2480" height="3508" viewBox="0 0 2480 3508" fill="none" xmlns="http://www.w3.org/2000/svg">
<g clip-path="url(#clip0_4_2)">
<rect width="2480" height="3508" fill="#EEEEEE"/>
<path d="M0 0H2480V1051H0V904.751V0Z" fill="#00AEEF"/>
<path d="M0 7.09998C0 5.14517 0 4.16777 0.269573 3.38041C0.770107 1.91847 1.91847 0.770107 3.38041 0.269573C4.16777 0 5.14518 0 7.1 0H2472.9C2474.85 0 2475.83 0 2476.62 0.269573C2478.08 0.770107 2479.23 1.91847 2479.73 3.38041C2480 4.16777 2480 5.14518 2480 7.1V949.157C2480 960.886 2480 966.75 2478.38 971.474C2475.38 980.246 2468.49 987.136 2459.72 990.139C2454.99 991.757 2449.13 991.757 2437.4 991.757H42.6001C30.8711 991.757 25.0066 991.757 20.2825 990.139C11.5108 987.136 4.62064 980.246 1.61744 971.474C0 966.75 0 960.886 0 949.157V7.09998Z" fill="#00AEEF" fill-opacity="0.07"/>
<g filter="url(#filter0_d_4_2)">
<path d="M297 475.648V226H476.106V280.611H364.468V323.519H466.884V378.129H364.468V421.038H475.621V475.648H297Z" fill="white"/>
<path d="M611.983 226H678.481V397.146C678.4 413.399 674.314 427.702 666.225 440.054C658.216 452.325 647.133 461.914 632.976 468.822C618.9 475.648 602.68 479.061 584.316 479.061C568.38 479.061 553.818 476.298 540.632 470.772C527.446 465.165 516.929 456.388 509.082 444.442C501.235 432.415 497.352 416.812 497.433 397.633H564.901C565.144 403.891 566.195 409.173 568.056 413.48C569.998 417.787 572.667 421.038 576.065 423.232C579.543 425.345 583.75 426.401 588.685 426.401C593.7 426.401 597.907 425.304 601.305 423.11C604.783 420.916 607.413 417.665 609.192 413.358C610.972 408.97 611.902 403.566 611.983 397.146V226Z" fill="white"/>
<path d="M666.91 505.384H329.832C314.32 505.384 301.742 517.961 301.742 533.473V814.372C301.742 829.884 314.32 842.461 329.832 842.461H666.91C682.422 842.461 695 829.884 695 814.372V533.473C695 517.961 682.422 505.384 666.91 505.384ZM357.922 702.012L414.102 645.833L357.922 589.653L386.012 561.563L470.281 645.833L386.012 730.102L357.922 702.012ZM582.641 730.102H470.281V702.012H582.641V730.102Z" fill="white"/>
</g>
<path d="M985.42 451.909V561H972.21V451.909H985.42ZM1022.77 511.781V561H1010.2V479.182H1022.35V491.966H1023.41C1025.33 487.811 1028.24 484.473 1032.15 481.952C1036.06 479.395 1041.1 478.116 1047.28 478.116C1052.82 478.116 1057.66 479.253 1061.82 481.526C1065.97 483.763 1069.21 487.172 1071.51 491.753C1073.82 496.298 1074.98 502.051 1074.98 509.011V561H1062.4V509.864C1062.4 503.436 1060.74 498.429 1057.4 494.842C1054.06 491.22 1049.48 489.409 1043.65 489.409C1039.64 489.409 1036.06 490.279 1032.89 492.019C1029.77 493.759 1027.3 496.298 1025.49 499.636C1023.68 502.974 1022.77 507.023 1022.77 511.781ZM1155.9 497.506L1144.61 500.702C1143.9 498.82 1142.85 496.991 1141.47 495.215C1140.12 493.404 1138.27 491.913 1135.93 490.741C1133.58 489.569 1130.58 488.983 1126.92 488.983C1121.92 488.983 1117.74 490.137 1114.41 492.445C1111.1 494.718 1109.45 497.612 1109.45 501.128C1109.45 504.253 1110.59 506.721 1112.86 508.532C1115.13 510.343 1118.69 511.852 1123.52 513.06L1135.66 516.043C1142.98 517.818 1148.43 520.535 1152.01 524.192C1155.6 527.815 1157.39 532.484 1157.39 538.202C1157.39 542.889 1156.04 547.08 1153.34 550.773C1150.68 554.466 1146.95 557.378 1142.16 559.509C1137.36 561.639 1131.79 562.705 1125.43 562.705C1117.09 562.705 1110.18 560.893 1104.71 557.271C1099.24 553.649 1095.78 548.358 1094.32 541.398L1106.26 538.415C1107.39 542.818 1109.54 546.121 1112.7 548.322C1115.9 550.524 1120.07 551.625 1125.22 551.625C1131.08 551.625 1135.73 550.382 1139.18 547.896C1142.66 545.375 1144.4 542.357 1144.4 538.841C1144.4 536 1143.4 533.621 1141.41 531.703C1139.42 529.75 1136.37 528.294 1132.25 527.335L1118.61 524.139C1111.12 522.364 1105.62 519.612 1102.1 515.883C1098.62 512.119 1096.88 507.413 1096.88 501.767C1096.88 497.151 1098.18 493.067 1100.77 489.516C1103.4 485.964 1106.97 483.177 1111.48 481.153C1116.02 479.129 1121.17 478.116 1126.92 478.116C1135.02 478.116 1141.38 479.892 1145.99 483.443C1150.65 486.994 1153.95 491.682 1155.9 497.506ZM1211.9 479.182V489.835H1169.5V479.182H1211.9ZM1181.86 459.58H1194.43V537.562C1194.43 541.114 1194.94 543.777 1195.97 545.553C1197.04 547.293 1198.39 548.464 1200.02 549.068C1201.69 549.636 1203.45 549.92 1205.29 549.92C1206.68 549.92 1207.81 549.849 1208.7 549.707C1209.59 549.53 1210.3 549.388 1210.83 549.281L1213.39 560.574C1212.54 560.893 1211.35 561.213 1209.82 561.533C1208.29 561.888 1206.36 562.065 1204.02 562.065C1200.46 562.065 1196.98 561.302 1193.57 559.775C1190.2 558.248 1187.4 555.922 1185.16 552.797C1182.96 549.672 1181.86 545.73 1181.86 540.972V459.58ZM1254.89 562.918C1249.7 562.918 1245 561.941 1240.77 559.988C1236.54 557.999 1233.19 555.141 1230.7 551.412C1228.22 547.648 1226.97 543.102 1226.97 537.776C1226.97 533.088 1227.9 529.288 1229.74 526.376C1231.59 523.429 1234.06 521.121 1237.15 519.452C1240.24 517.783 1243.65 516.54 1247.37 515.723C1251.14 514.871 1254.92 514.196 1258.72 513.699C1263.69 513.06 1267.72 512.58 1270.81 512.261C1273.94 511.906 1276.21 511.32 1277.63 510.503C1279.09 509.686 1279.81 508.266 1279.81 506.241V505.815C1279.81 500.56 1278.38 496.476 1275.5 493.564C1272.66 490.652 1268.34 489.196 1262.56 489.196C1256.55 489.196 1251.85 490.51 1248.44 493.138C1245.03 495.766 1242.63 498.571 1241.25 501.554L1229.32 497.293C1231.45 492.321 1234.29 488.45 1237.84 485.68C1241.43 482.875 1245.33 480.922 1249.56 479.821C1253.82 478.685 1258.01 478.116 1262.13 478.116C1264.76 478.116 1267.78 478.436 1271.18 479.075C1274.63 479.679 1277.95 480.94 1281.15 482.857C1284.38 484.775 1287.06 487.669 1289.19 491.54C1291.32 495.411 1292.39 500.595 1292.39 507.094V561H1279.81V549.92H1279.17C1278.32 551.696 1276.9 553.596 1274.91 555.62C1272.92 557.644 1270.28 559.366 1266.98 560.787C1263.67 562.207 1259.64 562.918 1254.89 562.918ZM1256.8 551.625C1261.77 551.625 1265.96 550.648 1269.37 548.695C1272.82 546.742 1275.41 544.221 1277.15 541.131C1278.93 538.042 1279.81 534.793 1279.81 531.384V519.878C1279.28 520.517 1278.11 521.103 1276.3 521.636C1274.52 522.133 1272.46 522.577 1270.12 522.967C1267.81 523.322 1265.56 523.642 1263.35 523.926C1261.19 524.175 1259.43 524.388 1258.08 524.565C1254.81 524.991 1251.76 525.684 1248.92 526.643C1246.11 527.566 1243.84 528.969 1242.1 530.851C1240.4 532.697 1239.54 535.219 1239.54 538.415C1239.54 542.783 1241.16 546.085 1244.39 548.322C1247.66 550.524 1251.8 551.625 1256.8 551.625ZM1327.9 451.909V561H1315.33V451.909H1327.9ZM1363.5 451.909V561H1350.93V451.909H1363.5ZM1410.6 562.918C1405.41 562.918 1400.71 561.941 1396.48 559.988C1392.26 557.999 1388.9 555.141 1386.41 551.412C1383.93 547.648 1382.69 543.102 1382.69 537.776C1382.69 533.088 1383.61 529.288 1385.46 526.376C1387.3 523.429 1389.77 521.121 1392.86 519.452C1395.95 517.783 1399.36 516.54 1403.09 515.723C1406.85 514.871 1410.63 514.196 1414.43 513.699C1419.4 513.06 1423.44 512.58 1426.52 512.261C1429.65 511.906 1431.92 511.32 1433.34 510.503C1434.8 509.686 1435.53 508.266 1435.53 506.241V505.815C1435.53 500.56 1434.09 496.476 1431.21 493.564C1428.37 490.652 1424.06 489.196 1418.27 489.196C1412.27 489.196 1407.56 490.51 1404.15 493.138C1400.74 495.766 1398.35 498.571 1396.96 501.554L1385.03 497.293C1387.16 492.321 1390 488.45 1393.55 485.68C1397.14 482.875 1401.05 480.922 1405.27 479.821C1409.53 478.685 1413.72 478.116 1417.84 478.116C1420.47 478.116 1423.49 478.436 1426.9 479.075C1430.34 479.679 1433.66 480.94 1436.86 482.857C1440.09 484.775 1442.77 487.669 1444.9 491.54C1447.03 495.411 1448.1 500.595 1448.1 507.094V561H1435.53V549.92H1434.89C1434.04 551.696 1432.62 553.596 1430.63 555.62C1428.64 557.644 1425.99 559.366 1422.69 560.787C1419.39 562.207 1415.36 562.918 1410.6 562.918ZM1412.52 551.625C1417.49 551.625 1421.68 550.648 1425.09 548.695C1428.53 546.742 1431.12 544.221 1432.86 541.131C1434.64 538.042 1435.53 534.793 1435.53 531.384V519.878C1434.99 520.517 1433.82 521.103 1432.01 521.636C1430.24 522.133 1428.18 522.577 1425.83 522.967C1423.52 523.322 1421.27 523.642 1419.07 523.926C1416.9 524.175 1415.14 524.388 1413.79 524.565C1410.53 524.991 1407.47 525.684 1404.63 526.643C1401.83 527.566 1399.55 528.969 1397.81 530.851C1396.11 532.697 1395.26 535.219 1395.26 538.415C1395.26 542.783 1396.87 546.085 1400.1 548.322C1403.37 550.524 1407.51 551.625 1412.52 551.625ZM1506.63 479.182V489.835H1464.22V479.182H1506.63ZM1476.58 459.58H1489.15V537.562C1489.15 541.114 1489.67 543.777 1490.7 545.553C1491.76 547.293 1493.11 548.464 1494.75 549.068C1496.42 549.636 1498.17 549.92 1500.02 549.92C1501.41 549.92 1502.54 549.849 1503.43 549.707C1504.32 549.53 1505.03 549.388 1505.56 549.281L1508.12 560.574C1507.26 560.893 1506.07 561.213 1504.55 561.533C1503.02 561.888 1501.09 562.065 1498.74 562.065C1495.19 562.065 1491.71 561.302 1488.3 559.775C1484.93 558.248 1482.12 555.922 1479.89 552.797C1477.68 549.672 1476.58 545.73 1476.58 540.972V459.58ZM1525.53 561V479.182H1538.11V561H1525.53ZM1531.93 465.545C1529.48 465.545 1527.36 464.711 1525.59 463.042C1523.85 461.373 1522.98 459.366 1522.98 457.023C1522.98 454.679 1523.85 452.673 1525.59 451.004C1527.36 449.335 1529.48 448.5 1531.93 448.5C1534.38 448.5 1536.47 449.335 1538.21 451.004C1539.99 452.673 1540.88 454.679 1540.88 457.023C1540.88 459.366 1539.99 461.373 1538.21 463.042C1536.47 464.711 1534.38 465.545 1531.93 465.545ZM1594.37 562.705C1586.98 562.705 1580.5 560.947 1574.93 557.431C1569.39 553.915 1565.05 548.997 1561.93 542.676C1558.84 536.355 1557.3 528.969 1557.3 520.517C1557.3 511.994 1558.84 504.555 1561.93 498.198C1565.05 491.842 1569.39 486.906 1574.93 483.39C1580.5 479.874 1586.98 478.116 1594.37 478.116C1601.76 478.116 1608.22 479.874 1613.76 483.39C1619.33 486.906 1623.67 491.842 1626.76 498.198C1629.88 504.555 1631.44 511.994 1631.44 520.517C1631.44 528.969 1629.88 536.355 1626.76 542.676C1623.67 548.997 1619.33 553.915 1613.76 557.431C1608.22 560.947 1601.76 562.705 1594.37 562.705ZM1594.37 551.412C1599.98 551.412 1604.6 549.974 1608.22 547.097C1611.84 544.221 1614.52 540.439 1616.26 535.751C1618 531.064 1618.87 525.986 1618.87 520.517C1618.87 515.048 1618 509.952 1616.26 505.229C1614.52 500.506 1611.84 496.689 1608.22 493.777C1604.6 490.865 1599.98 489.409 1594.37 489.409C1588.76 489.409 1584.14 490.865 1580.52 493.777C1576.9 496.689 1574.22 500.506 1572.48 505.229C1570.74 509.952 1569.87 515.048 1569.87 520.517C1569.87 525.986 1570.74 531.064 1572.48 535.751C1574.22 540.439 1576.9 544.221 1580.52 547.097C1584.14 549.974 1588.76 551.412 1594.37 551.412ZM1663.2 511.781V561H1650.63V479.182H1662.78V491.966H1663.84C1665.76 487.811 1668.67 484.473 1672.58 481.952C1676.48 479.395 1681.53 478.116 1687.71 478.116C1693.25 478.116 1698.09 479.253 1702.25 481.526C1706.4 483.763 1709.63 487.172 1711.94 491.753C1714.25 496.298 1715.41 502.051 1715.41 509.011V561H1702.83V509.864C1702.83 503.436 1701.17 498.429 1697.83 494.842C1694.49 491.22 1689.91 489.409 1684.08 489.409C1680.07 489.409 1676.48 490.279 1673.32 492.019C1670.2 493.759 1667.73 496.298 1665.92 499.636C1664.11 502.974 1663.2 507.023 1663.2 511.781Z" fill="white"/>
<path d="M1251.61 647.953V675.469C1250.48 676.75 1248.77 678.125 1246.45 679.594C1244.17 681.062 1241.25 682.328 1237.69 683.391C1234.12 684.422 1229.88 684.938 1224.94 684.938C1220.47 684.938 1216.41 684.219 1212.75 682.781C1209.09 681.312 1205.95 679.172 1203.33 676.359C1200.7 673.516 1198.67 670.047 1197.23 665.953C1195.83 661.859 1195.12 657.172 1195.12 651.891V647.859C1195.12 642.578 1195.83 637.891 1197.23 633.797C1198.64 629.703 1200.62 626.25 1203.19 623.438C1205.75 620.594 1208.8 618.438 1212.33 616.969C1215.86 615.5 1219.77 614.766 1224.05 614.766C1230.14 614.766 1235.12 615.75 1239 617.719C1242.88 619.656 1245.81 622.344 1247.81 625.781C1249.84 629.219 1251.09 633.172 1251.56 637.641H1236.84C1236.53 635.359 1235.91 633.391 1234.97 631.734C1234.06 630.078 1232.77 628.812 1231.08 627.938C1229.39 627.031 1227.2 626.578 1224.52 626.578C1222.36 626.578 1220.41 627.031 1218.66 627.938C1216.94 628.812 1215.48 630.141 1214.3 631.922C1213.11 633.703 1212.2 635.922 1211.58 638.578C1210.95 641.203 1210.64 644.266 1210.64 647.766V651.891C1210.64 655.391 1210.95 658.469 1211.58 661.125C1212.23 663.781 1213.19 666 1214.44 667.781C1215.69 669.531 1217.27 670.859 1219.17 671.766C1221.11 672.672 1223.36 673.125 1225.92 673.125C1227.92 673.125 1229.61 672.969 1230.98 672.656C1232.36 672.312 1233.48 671.891 1234.36 671.391C1235.23 670.859 1235.89 670.375 1236.33 669.938V658.594H1224.19V647.953H1251.61ZM1299.42 615.75H1314.7V660.562C1314.7 665.875 1313.58 670.344 1311.33 673.969C1309.11 677.594 1306.02 680.328 1302.05 682.172C1298.08 684.016 1293.48 684.938 1288.27 684.938C1283.02 684.938 1278.39 684.016 1274.39 682.172C1270.42 680.328 1267.3 677.594 1265.02 673.969C1262.77 670.344 1261.64 665.875 1261.64 660.562V615.75H1276.97V660.562C1276.97 663.5 1277.41 665.906 1278.28 667.781C1279.19 669.625 1280.48 670.984 1282.17 671.859C1283.86 672.703 1285.89 673.125 1288.27 673.125C1290.64 673.125 1292.66 672.703 1294.31 671.859C1296 670.984 1297.27 669.625 1298.11 667.781C1298.98 665.906 1299.42 663.5 1299.42 660.562V615.75ZM1341.89 615.75V684H1326.66V615.75H1341.89ZM1375.83 684H1360.83L1360.92 672.188H1375.83C1379.23 672.188 1382.11 671.406 1384.45 669.844C1386.8 668.25 1388.58 665.906 1389.8 662.812C1391.02 659.688 1391.62 655.891 1391.62 651.422V648.281C1391.62 644.906 1391.28 641.938 1390.59 639.375C1389.91 636.781 1388.89 634.609 1387.55 632.859C1386.2 631.109 1384.53 629.797 1382.53 628.922C1380.56 628.047 1378.3 627.609 1375.73 627.609H1360.55V615.75H1375.73C1380.36 615.75 1384.58 616.531 1388.39 618.094C1392.23 619.656 1395.55 621.891 1398.33 624.797C1401.14 627.703 1403.31 631.141 1404.84 635.109C1406.38 639.078 1407.14 643.5 1407.14 648.375V651.422C1407.14 656.266 1406.38 660.688 1404.84 664.688C1403.31 668.656 1401.14 672.094 1398.33 675C1395.55 677.875 1392.25 680.094 1388.44 681.656C1384.62 683.219 1380.42 684 1375.83 684ZM1369.5 615.75V684H1354.22V615.75H1369.5ZM1462.88 672.188V684H1426.55V672.188H1462.88ZM1431.75 615.75V684H1416.47V615.75H1431.75ZM1458.19 643.219V654.656H1426.55V643.219H1458.19ZM1462.92 615.75V627.609H1426.55V615.75H1462.92Z" fill="white"/>
<path d="M2296.96 57.1794C2296.88 57.1631 2296.8 57.1794 2296.71 57.1794C2296.65 57.1794 2296.58 57.1794 2296.5 57.1794V57.1957C2284.22 57.3426 2272.92 63.5752 2266.21 70.4442C2270.39 75.6489 2273.48 81.7347 2275.17 88.3753C2278.7 82.0284 2287.81 74.8658 2296.89 75.2411C2310.53 75.3879 2321.83 86.4663 2321.83 100.106V100.269C2321.75 113.942 2310.63 124.972 2296.94 124.972C2283.24 124.972 2272.14 113.942 2272.06 100.269V100.106C2272.06 90.2516 2268.72 81.18 2263.14 73.9358C2255.3 63.7384 2242.97 57.1794 2229.11 57.1794C2205.4 57.1794 2186.19 76.3505 2186.13 100.025V100.269C2186.18 112.082 2190.99 122.785 2198.77 130.519C2206.54 138.253 2220.75 144.975 2233.68 143.131V143.033C2243.74 141.793 2252.72 137.094 2259.4 130.144C2255.17 124.972 2252.02 118.918 2250.26 112.294C2246.74 118.755 2240.44 123.487 2232.95 124.874V124.988C2216.94 127.288 2204.29 113.73 2204.21 100.269C2204.25 93.4495 2207.05 87.2658 2211.55 82.7953C2216.04 78.3247 2222.23 75.5674 2229.09 75.5674C2242.84 75.5674 2253.98 86.3684 2253.98 100.106V100.123C2253.98 100.172 2253.98 100.237 2253.98 100.286C2254.01 110.222 2257.42 119.375 2263.14 126.636C2270.99 136.637 2283.23 143.066 2296.94 143.066C2320.67 143.066 2339.92 124.172 2339.92 100.449V100.123C2339.94 76.5463 2320.49 57.4242 2296.96 57.1794Z" fill="white"/>
<path d="M2187.29 130.405C2183.04 125.233 2179.87 119.147 2178.11 112.49C2174.58 118.967 2168.26 123.454 2160.77 124.857C2159.58 125.021 2158.37 125.118 2157.13 125.118C2150.25 125.118 2144.03 122.345 2139.52 117.858C2135.02 113.371 2132.21 107.171 2132.16 100.318C2132.26 86.8089 2144.93 73.1853 2161.01 75.5021C2161.26 75.5347 2161.5 75.5674 2161.75 75.6163C2168.33 77.3621 2173.82 81.49 2177.02 87.2168C2178.78 80.7232 2181.95 74.7842 2186.19 69.7263C2179.32 62.7595 2170.03 58.0768 2159.64 57V57.0816V57.0979C2149.63 56.3637 2139.1 60.41 2131.54 65.8758C2129.74 67.1811 2128.11 68.5516 2126.69 69.9547C2118.88 77.7374 2114.05 88.4732 2114 100.335V100.579C2114 100.971 2114 101.346 2114.02 101.738V101.754C2114.69 124.972 2133.73 143.588 2157.13 143.588C2158.35 143.588 2159.56 143.539 2160.75 143.441V143.457C2171.15 142.348 2180.43 137.551 2187.29 130.405Z" fill="white"/>
<path d="M2384.09 57.31C2363.68 57.31 2347.16 73.9032 2347.16 94.4121C2347.16 95.1789 2347.19 95.9621 2347.24 96.7126V172.189L2350.68 175.338V115.818H2350.77C2350.98 115.182 2351.58 114.725 2352.32 114.725C2353.05 114.725 2353.66 115.182 2353.87 115.818H2353.93C2353.93 115.835 2353.95 115.851 2353.95 115.851V179.564H2354.11L2357.56 176.171L2363.36 169.236V165.957L2360.53 163.444L2362.1 159.692V156.869L2360.06 155.923L2359.91 150.604L2362.1 148.564V144.192L2359.27 142.152V138.579L2364.76 135.283V126.016C2370.39 129.491 2377.01 131.498 2384.09 131.498C2404.47 131.498 2421 114.872 2421 94.3958C2421 73.9032 2404.46 57.31 2384.09 57.31ZM2384.09 116.275C2372.06 116.275 2362.31 106.502 2362.31 94.4121C2362.31 82.3221 2372.06 72.5 2384.09 72.5C2396.11 72.5 2405.85 82.3058 2405.85 94.3958C2405.85 106.486 2396.11 116.275 2384.09 116.275Z" fill="white"/>
<path d="M2114.31 150.539C2115.65 150.278 2118.39 150.082 2120.94 150.082C2124.08 150.082 2126 150.375 2127.65 151.322C2129.24 152.138 2130.38 153.639 2130.38 155.629C2130.38 157.587 2129.2 159.414 2126.64 160.344V160.41C2129.24 161.095 2131.16 162.987 2131.16 165.843C2131.16 167.833 2130.22 169.4 2128.81 170.525C2127.16 171.798 2124.4 172.516 2119.88 172.516C2117.35 172.516 2115.47 172.353 2114.33 172.189V150.539H2114.31ZM2119.39 158.974H2121.07C2123.77 158.974 2125.22 157.897 2125.22 156.265C2125.22 154.601 2123.91 153.72 2121.58 153.72C2120.47 153.72 2119.83 153.785 2119.39 153.851V158.974ZM2119.39 168.747C2119.9 168.812 2120.5 168.812 2121.38 168.812C2123.7 168.812 2125.76 167.964 2125.76 165.647C2125.76 163.428 2123.7 162.547 2121.14 162.547H2119.39V168.747Z" fill="white"/>
<path d="M2143.95 172.271L2143.64 170.672H2143.54C2142.46 171.945 2140.78 172.63 2138.82 172.63C2135.49 172.63 2133.5 170.281 2133.5 167.719C2133.5 163.575 2137.34 161.568 2143.17 161.601V161.372C2143.17 160.524 2142.69 159.316 2140.16 159.316C2138.48 159.316 2136.68 159.871 2135.6 160.524L2134.66 157.326C2135.8 156.706 2138.05 155.923 2141.06 155.923C2146.55 155.923 2148.31 159.055 2148.31 162.824V168.388C2148.31 169.922 2148.37 171.39 2148.54 172.271H2143.95ZM2143.34 164.717C2140.65 164.684 2138.56 165.304 2138.56 167.229C2138.56 168.502 2139.44 169.122 2140.58 169.122C2141.86 169.122 2142.9 168.306 2143.25 167.295C2143.31 167.034 2143.34 166.74 2143.34 166.446V164.717Z" fill="white"/>
<path d="M2152.38 161.388C2152.38 159.398 2152.31 157.701 2152.24 156.282H2156.69L2156.91 158.468H2157.01C2157.68 157.456 2159.36 155.923 2162.11 155.923C2165.47 155.923 2168 158.076 2168 162.792V172.271H2162.88V163.412C2162.88 161.356 2162.14 159.953 2160.28 159.953C2158.86 159.953 2158.03 160.899 2157.68 161.813C2157.55 162.106 2157.49 162.596 2157.49 163.053V172.271H2152.38V161.388Z" fill="white"/>
<path d="M2177.23 163.02H2177.29C2177.67 162.368 2178.06 161.715 2178.47 161.095L2181.8 156.298H2187.97L2182.08 162.775L2188.82 172.288H2182.52L2178.55 165.712L2177.25 167.278V172.288H2172.12V149.07H2177.25V163.02H2177.23Z" fill="white"/>
<path d="M2213.45 164.097C2213.45 169.954 2209.17 172.63 2204.76 172.63C2199.94 172.63 2196.24 169.563 2196.24 164.39C2196.24 159.218 2199.75 155.923 2205.04 155.923C2210.08 155.923 2213.45 159.3 2213.45 164.097ZM2201.53 164.26C2201.53 167.001 2202.7 169.073 2204.89 169.073C2206.88 169.073 2208.16 167.148 2208.16 164.26C2208.16 161.878 2207.21 159.447 2204.89 159.447C2202.44 159.463 2201.53 161.91 2201.53 164.26Z" fill="white"/>
<path d="M2217.19 172.271V159.953H2215.03V156.298H2217.19V155.678C2217.19 153.753 2217.79 151.632 2219.28 150.31C2220.55 149.135 2222.35 148.711 2223.83 148.711C2224.98 148.711 2225.86 148.842 2226.56 149.037L2226.37 152.855C2225.92 152.725 2225.39 152.627 2224.72 152.627C2223.03 152.627 2222.33 153.899 2222.33 155.466V156.282H2225.63V159.936H2222.36V172.255H2217.19V172.271Z" fill="white"/>
<path d="M2255.87 161.03C2255.87 168.258 2251.35 172.63 2244.72 172.63C2237.98 172.63 2234.04 167.686 2234.04 161.421C2234.04 154.813 2238.38 149.886 2245.1 149.886C2252.07 149.886 2255.87 154.944 2255.87 161.03ZM2239.46 161.323C2239.46 165.631 2241.55 168.682 2244.98 168.682C2248.46 168.682 2250.44 165.484 2250.44 161.193C2250.44 157.244 2248.48 153.834 2244.95 153.834C2241.49 153.834 2239.46 157.032 2239.46 161.323Z" fill="white"/>
<path d="M2259.17 161.552C2259.17 159.202 2259.11 157.668 2259.04 156.282H2263.45L2263.61 159.218H2263.74C2264.59 156.902 2266.6 155.923 2268.19 155.923C2268.66 155.923 2268.89 155.923 2269.26 155.988V160.671C2268.89 160.605 2268.45 160.54 2267.88 160.54C2265.98 160.54 2264.71 161.519 2264.36 163.053C2264.3 163.379 2264.27 163.771 2264.27 164.162V172.271H2259.17V161.552Z" fill="white"/>
<path d="M2288.01 164.097C2288.01 169.954 2283.73 172.63 2279.32 172.63C2274.51 172.63 2270.8 169.563 2270.8 164.39C2270.8 159.218 2274.31 155.923 2279.6 155.923C2284.63 155.923 2288.01 159.3 2288.01 164.097ZM2276.07 164.26C2276.07 167.001 2277.25 169.073 2279.44 169.073C2281.43 169.073 2282.7 167.148 2282.7 164.26C2282.7 161.878 2281.76 159.447 2279.44 159.447C2276.99 159.463 2276.07 161.91 2276.07 164.26Z" fill="white"/>
<path d="M2291.18 161.388C2291.18 159.398 2291.11 157.701 2291.05 156.282H2295.36L2295.59 158.435H2295.69C2296.39 157.424 2297.84 155.923 2300.67 155.923C2302.79 155.923 2304.47 156.967 2305.19 158.631H2305.25C2305.86 157.815 2306.61 157.163 2307.38 156.706C2308.29 156.184 2309.3 155.923 2310.51 155.923C2313.68 155.923 2316.06 158.076 2316.06 162.857V172.271H2311.08V163.575C2311.08 161.258 2310.32 159.92 2308.65 159.92C2307.48 159.92 2306.63 160.703 2306.3 161.649C2306.17 162.008 2306.1 162.53 2306.1 162.922V172.271H2301.12V163.314C2301.12 161.291 2300.39 159.92 2298.77 159.92C2297.47 159.92 2296.68 160.899 2296.39 161.715C2296.22 162.106 2296.19 162.563 2296.19 162.955V172.271H2291.21V161.388H2291.18Z" fill="white"/>
<path d="M2325.44 151.844C2325.44 153.214 2324.36 154.324 2322.68 154.324C2321.06 154.324 2319.98 153.214 2320.02 151.844C2319.98 150.408 2321.06 149.331 2322.71 149.331C2324.36 149.331 2325.41 150.408 2325.44 151.844ZM2320.15 172.271V156.282H2325.27V172.271H2320.15Z" fill="white"/>
<path d="M2338.75 172.271L2338.44 170.672H2338.34C2337.26 171.945 2335.58 172.63 2333.62 172.63C2330.29 172.63 2328.3 170.281 2328.3 167.719C2328.3 163.575 2332.13 161.568 2337.96 161.601V161.372C2337.96 160.524 2337.49 159.316 2334.96 159.316C2333.28 159.316 2331.48 159.871 2330.4 160.524L2329.46 157.326C2330.6 156.706 2332.85 155.923 2335.86 155.923C2341.34 155.923 2343.11 159.055 2343.11 162.824V168.388C2343.11 169.922 2343.17 171.39 2343.34 172.271H2338.75ZM2338.13 164.717C2335.43 164.684 2333.34 165.304 2333.34 167.229C2333.34 168.502 2334.22 169.122 2335.37 169.122C2336.64 169.122 2337.69 168.306 2338.03 167.295C2338.09 167.034 2338.13 166.74 2338.13 166.446V164.717Z" fill="white"/>
<path d="M0.485417 2905.14L2480 1934V3512.41L-74 3579L0.485417 3408.58V2905.14Z" fill="#00AEEF"/>
</g>
<defs>
<filter id="filter0_d_4_2" x="293" y="226" width="406" height="624.461" filterUnits="userSpaceOnUse" color-interpolation-filters="sRGB">
<feFlood flood-opacity="0" result="BackgroundImageFix"/>
<feColorMatrix in="SourceAlpha" type="matrix" values="0 0 0 0 0 0 0 0 0 0 0 0 0 0 0 0 0 0 127 0" result="hardAlpha"/>
<feOffset dy="4"/>
<feGaussianBlur stdDeviation="2"/>
<feComposite in2="hardAlpha" operator="out"/>
<feColorMatrix type="matrix" values="0 0 0 0 0 0 0 0 0 0 0 0 0 0 0 0 0 0 0.25 0"/>
<feBlend mode="normal" in2="BackgroundImageFix" result="effect1_dropShadow_4_2"/>
<feBlend mode="normal" in="SourceGraphic" in2="effect1_dropShadow_4_2" result="shape"/>
</filter>
<clipPath id="clip0_4_2">
<rect width="2480" height="3508" fill="white"/>
</clipPath>
</defs>
</svg>
